<mxfile host="app.diagrams.net" agent="Mozilla/5.0 (Windows NT 10.0; Win64; x64) AppleWebKit/537.36 (KHTML, like Gecko) Chrome/135.0.0.0 Safari/537.36" version="26.2.12">
  <diagram name="Page-1" id="pQLeG-ovkxcTYLoWdze_">
    <mxGraphModel dx="1428" dy="1877" grid="1" gridSize="10" guides="1" tooltips="1" connect="1" arrows="1" fold="1" page="1" pageScale="1" pageWidth="850" pageHeight="1100" math="0" shadow="0">
      <root>
        <mxCell id="0" />
        <mxCell id="1" parent="0" />
        <mxCell id="WwRjLCZk2WkGu7nkZ1y_-1" value="AWS Resources" style="rounded=0;whiteSpace=wrap;html=1;" vertex="1" parent="1">
          <mxGeometry x="210" y="351.64" width="100" height="60" as="geometry" />
        </mxCell>
        <mxCell id="WwRjLCZk2WkGu7nkZ1y_-2" value="" style="image;aspect=fixed;html=1;points=[];align=center;fontSize=12;image=img/lib/azure2/identity/Users.svg;" vertex="1" parent="1">
          <mxGeometry x="197" y="221.64" width="44" height="48.13" as="geometry" />
        </mxCell>
        <mxCell id="WwRjLCZk2WkGu7nkZ1y_-3" value="" style="sketch=0;outlineConnect=0;fontColor=#232F3E;gradientColor=none;fillColor=#232F3D;strokeColor=none;dashed=0;verticalLabelPosition=bottom;verticalAlign=top;align=center;html=1;fontSize=12;fontStyle=0;aspect=fixed;pointerEvents=1;shape=mxgraph.aws4.users;" vertex="1" parent="1">
          <mxGeometry x="262" y="225.76999999999998" width="44" height="44" as="geometry" />
        </mxCell>
        <mxCell id="WwRjLCZk2WkGu7nkZ1y_-4" value="" style="sketch=0;outlineConnect=0;fontColor=#232F3E;gradientColor=none;fillColor=#DD344C;strokeColor=none;dashed=0;verticalLabelPosition=bottom;verticalAlign=top;align=center;html=1;fontSize=12;fontStyle=0;aspect=fixed;pointerEvents=1;shape=mxgraph.aws4.identity_access_management_iam_roles_anywhere;" vertex="1" parent="1">
          <mxGeometry x="416" y="220.77" width="60" height="60" as="geometry" />
        </mxCell>
        <mxCell id="WwRjLCZk2WkGu7nkZ1y_-5" value="" style="endArrow=classic;html=1;rounded=0;entryX=0.087;entryY=-0.033;entryDx=0;entryDy=0;entryPerimeter=0;exitX=0.484;exitY=1.014;exitDx=0;exitDy=0;exitPerimeter=0;" edge="1" parent="1" source="WwRjLCZk2WkGu7nkZ1y_-2" target="WwRjLCZk2WkGu7nkZ1y_-1">
          <mxGeometry width="50" height="50" relative="1" as="geometry">
            <mxPoint x="520" y="411.64" as="sourcePoint" />
            <mxPoint x="570" y="361.64" as="targetPoint" />
          </mxGeometry>
        </mxCell>
        <mxCell id="WwRjLCZk2WkGu7nkZ1y_-6" value="" style="endArrow=classic;html=1;rounded=0;entryX=0.75;entryY=0;entryDx=0;entryDy=0;exitX=0.526;exitY=1;exitDx=0;exitDy=0;exitPerimeter=0;" edge="1" parent="1" source="WwRjLCZk2WkGu7nkZ1y_-3" target="WwRjLCZk2WkGu7nkZ1y_-1">
          <mxGeometry width="50" height="50" relative="1" as="geometry">
            <mxPoint x="428" y="171.64" as="sourcePoint" />
            <mxPoint x="570" y="361.64" as="targetPoint" />
          </mxGeometry>
        </mxCell>
        <mxCell id="WwRjLCZk2WkGu7nkZ1y_-7" value="AWS Services" style="rounded=0;whiteSpace=wrap;html=1;" vertex="1" parent="1">
          <mxGeometry x="388" y="351.64" width="120" height="60" as="geometry" />
        </mxCell>
        <mxCell id="WwRjLCZk2WkGu7nkZ1y_-8" value="" style="endArrow=classic;html=1;rounded=0;exitX=0.551;exitY=1.024;exitDx=0;exitDy=0;exitPerimeter=0;entryX=0.5;entryY=0;entryDx=0;entryDy=0;" edge="1" parent="1" source="WwRjLCZk2WkGu7nkZ1y_-4" target="WwRjLCZk2WkGu7nkZ1y_-7">
          <mxGeometry width="50" height="50" relative="1" as="geometry">
            <mxPoint x="361" y="484.64" as="sourcePoint" />
            <mxPoint x="411" y="434.64" as="targetPoint" />
          </mxGeometry>
        </mxCell>
        <mxCell id="WwRjLCZk2WkGu7nkZ1y_-9" value="" style="sketch=0;outlineConnect=0;fontColor=#232F3E;gradientColor=none;fillColor=#7AA116;strokeColor=none;dashed=0;verticalLabelPosition=bottom;verticalAlign=top;align=center;html=1;fontSize=12;fontStyle=0;aspect=fixed;pointerEvents=1;shape=mxgraph.aws4.policy;" vertex="1" parent="1">
          <mxGeometry x="186" y="-50" width="64.93" height="55.77" as="geometry" />
        </mxCell>
        <mxCell id="WwRjLCZk2WkGu7nkZ1y_-10" value="Access" style="rounded=0;whiteSpace=wrap;html=1;" vertex="1" parent="1">
          <mxGeometry x="413.5" y="299.77" width="68.5" height="20" as="geometry" />
        </mxCell>
        <mxCell id="WwRjLCZk2WkGu7nkZ1y_-15" value="&lt;div style=&quot;text-align: center;&quot;&gt;&lt;span style=&quot;background-color: transparent; color: light-dark(rgb(0, 0, 0), rgb(255, 255, 255));&quot;&gt;JSON Document.&amp;nbsp;&lt;/span&gt;&lt;/div&gt;&lt;div&gt;&lt;span style=&quot;&quot;&gt;&lt;br&gt;&lt;/span&gt;&lt;/div&gt;&lt;div style=&quot;text-align: left;&quot;&gt;&lt;span style=&quot;&quot;&gt;Level of permissions, actions allowed and denied to the AWS Services&lt;/span&gt;&lt;/div&gt;&lt;div style=&quot;text-align: left;&quot;&gt;&lt;span style=&quot;&quot;&gt;&lt;br&gt;&lt;/span&gt;&lt;/div&gt;&lt;div style=&quot;text-align: left;&quot;&gt;&lt;span style=&quot;&quot;&gt;AWS Managed Policy&amp;nbsp;&lt;/span&gt;&lt;/div&gt;&lt;div style=&quot;text-align: left;&quot;&gt;&lt;span style=&quot;&quot;&gt;Customer Managed Policy&lt;/span&gt;&lt;/div&gt;" style="shape=card;whiteSpace=wrap;html=1;align=right;" vertex="1" parent="1">
          <mxGeometry x="248" y="-11.41" width="168" height="140" as="geometry" />
        </mxCell>
        <mxCell id="WwRjLCZk2WkGu7nkZ1y_-18" value="" style="sketch=0;outlineConnect=0;fontColor=#232F3E;gradientColor=none;fillColor=#7AA116;strokeColor=none;dashed=0;verticalLabelPosition=bottom;verticalAlign=top;align=center;html=1;fontSize=12;fontStyle=0;aspect=fixed;pointerEvents=1;shape=mxgraph.aws4.policy;" vertex="1" parent="1">
          <mxGeometry x="180" y="200" width="30" height="25.77" as="geometry" />
        </mxCell>
        <mxCell id="WwRjLCZk2WkGu7nkZ1y_-19" value="" style="sketch=0;outlineConnect=0;fontColor=#232F3E;gradientColor=none;fillColor=#7AA116;strokeColor=none;dashed=0;verticalLabelPosition=bottom;verticalAlign=top;align=center;html=1;fontSize=12;fontStyle=0;aspect=fixed;pointerEvents=1;shape=mxgraph.aws4.policy;" vertex="1" parent="1">
          <mxGeometry x="250" y="200" width="30" height="25.77" as="geometry" />
        </mxCell>
        <mxCell id="WwRjLCZk2WkGu7nkZ1y_-20" value="" style="sketch=0;outlineConnect=0;fontColor=#232F3E;gradientColor=none;fillColor=#7AA116;strokeColor=none;dashed=0;verticalLabelPosition=bottom;verticalAlign=top;align=center;html=1;fontSize=12;fontStyle=0;aspect=fixed;pointerEvents=1;shape=mxgraph.aws4.policy;" vertex="1" parent="1">
          <mxGeometry x="395" y="195" width="30" height="25.77" as="geometry" />
        </mxCell>
        <mxCell id="WwRjLCZk2WkGu7nkZ1y_-21" value="&lt;div style=&quot;&quot;&gt;&lt;span style=&quot;background-color: transparent; color: light-dark(rgb(0, 0, 0), rgb(255, 255, 255));&quot;&gt;&lt;u&gt;Principle of Least Privilege&lt;/u&gt;&lt;/span&gt;&lt;/div&gt;&lt;div style=&quot;text-align: left;&quot;&gt;&lt;br&gt;&lt;/div&gt;&lt;div&gt;&lt;div style=&quot;text-align: left;&quot;&gt;&lt;ul&gt;&lt;li&gt;&lt;span style=&quot;background-color: transparent; color: light-dark(rgb(0, 0, 0), rgb(255, 255, 255));&quot;&gt;Only necessary permission are given to the IAM entities to perform required task on the AWS Resources&lt;/span&gt;&lt;/li&gt;&lt;li&gt;&lt;span style=&quot;background-color: transparent; color: light-dark(rgb(0, 0, 0), rgb(255, 255, 255));&quot;&gt;&lt;br&gt;&lt;/span&gt;&lt;/li&gt;&lt;li&gt;&lt;span style=&quot;background-color: transparent; color: light-dark(rgb(0, 0, 0), rgb(255, 255, 255));&quot;&gt;MFA&lt;/span&gt;&lt;/li&gt;&lt;li&gt;&lt;span style=&quot;background-color: transparent; color: light-dark(rgb(0, 0, 0), rgb(255, 255, 255));&quot;&gt;&lt;br&gt;&lt;/span&gt;&lt;/li&gt;&lt;li&gt;&lt;span style=&quot;background-color: transparent; color: light-dark(rgb(0, 0, 0), rgb(255, 255, 255));&quot;&gt;Audit Trail to track user activities and change in permission.&lt;/span&gt;&lt;/li&gt;&lt;/ul&gt;&lt;/div&gt;&lt;/div&gt;" style="rounded=0;whiteSpace=wrap;html=1;" vertex="1" parent="1">
          <mxGeometry x="170" y="470" width="380" height="140" as="geometry" />
        </mxCell>
        <mxCell id="WwRjLCZk2WkGu7nkZ1y_-22" value="&lt;font style=&quot;font-size: 8px;&quot;&gt;&lt;span style=&quot;background-color: transparent; color: light-dark(rgb(0, 0, 0), rgb(255, 255, 255));&quot;&gt;Name&amp;nbsp;&lt;/span&gt;&lt;br&gt;&lt;span style=&quot;background-color: transparent; color: light-dark(rgb(0, 0, 0), rgb(255, 255, 255));&quot;&gt;Security Credentials&amp;nbsp;&lt;/span&gt;&lt;/font&gt;&lt;div&gt;&lt;font style=&quot;font-size: 8px;&quot;&gt;&lt;span style=&quot;background-color: transparent; color: light-dark(rgb(0, 0, 0), rgb(255, 255, 255));&quot;&gt;-&amp;nbsp; (Password or Access Keys)&lt;/span&gt;&lt;/font&gt;&lt;/div&gt;" style="rounded=0;whiteSpace=wrap;html=1;align=left;" vertex="1" parent="1">
          <mxGeometry x="60" y="231.14" width="120" height="41" as="geometry" />
        </mxCell>
      </root>
    </mxGraphModel>
  </diagram>
</mxfile>
